<?xml version="1.0" standalone="no"?>
<!DOCTYPE svg PUBLIC "-//W3C//DTD SVG 20010904//EN"
 "http://www.w3.org/TR/2001/REC-SVG-20010904/DTD/svg10.dtd">
<svg version="1.0" xmlns="http://www.w3.org/2000/svg"
 width="300.000000pt" height="300.000000pt" viewBox="0 0 300.000000 300.000000"
 preserveAspectRatio="xMidYMid meet">
<metadata>
Created by potrace 1.10, written by Peter Selinger 2001-2011
</metadata>
<g transform="translate(0.000000,300.000000) scale(0.100000,-0.100000)"
fill="#000000" stroke="none">
<path d="M592 1833 c-26 -10 -31 -39 -17 -88 11 -36 15 -108 15 -296 l0 -248
26 -20 c25 -20 40 -21 217 -21 165 0 193 2 209 17 13 11 33 16 64 14 63 -3
102 16 126 62 l19 39 19 -38 c22 -42 19 -54 -6 -33 -13 11 -18 11 -21 2 -3 -7
-11 -13 -19 -13 -8 0 -14 -4 -14 -10 0 -12 70 -13 89 -1 9 6 22 6 34 -1 14 -7
26 -6 43 3 19 10 27 10 36 1 17 -17 73 -15 88 3 7 8 12 33 12 56 -1 36 2 40
21 37 16 -2 22 -10 23 -28 1 -52 5 -60 29 -76 23 -15 27 -15 49 0 23 14 27 14
54 -1 28 -16 31 -16 57 1 20 13 30 15 38 7 15 -15 68 -13 91 4 16 12 22 12 43
-2 22 -15 25 -14 49 8 l24 23 16 -22 c17 -24 43 -29 62 -10 10 10 19 8 43 -6
28 -16 32 -17 55 -1 22 14 27 14 46 0 29 -19 43 -19 63 2 16 15 19 15 46 -1
54 -32 99 19 73 83 -14 33 -13 35 21 72 27 30 35 48 35 77 0 38 -20 77 -52
100 -17 12 -16 15 13 51 34 43 31 58 -16 94 -32 24 -133 33 -189 17 -40 -11
-46 -10 -65 9 -23 23 -73 28 -89 8 -7 -9 -51 -12 -157 -11 -106 0 -154 -3
-173 -13 -22 -12 -35 -12 -70 -2 -63 17 -199 19 -249 3 -31 -11 -48 -12 -70
-3 -43 17 -233 19 -264 3 -22 -11 -34 -11 -74 2 -75 22 -116 18 -207 -21 -16
-6 -18 0 -18 59 0 58 -3 70 -25 91 -20 21 -33 25 -82 24 -32 0 -64 -3 -71 -6z
m79 -33 l59 0 0 -265 0 -265 103 0 c80 0 110 4 137 19 l34 18 18 -51 c10 -27
18 -53 18 -56 0 -3 -94 -4 -210 -2 l-210 3 0 272 c0 257 -1 274 -21 306 -17
28 -18 33 -4 27 9 -3 43 -6 76 -6z m1449 -125 c14 -17 8 -79 -11 -101 -6 -8
-20 -14 -31 -14 -18 0 -18 2 -4 22 14 20 14 23 -4 35 -11 8 -20 22 -20 32 0
37 46 55 70 26z m-1089 -53 c27 -30 29 -37 29 -120 0 -49 -6 -98 -13 -112 -39
-79 -225 -79 -264 0 -7 14 -13 63 -13 111 0 73 3 90 21 113 31 39 54 46 138
43 68 -2 75 -5 102 -35z m288 27 c41 -14 51 -35 51 -103 0 -44 -4 -58 -19 -68
-18 -11 -18 -13 5 -75 13 -35 24 -66 24 -68 0 -3 -22 -5 -49 -5 l-50 0 -17 60
c-15 55 -19 60 -45 60 -29 0 -29 -1 -29 -60 l0 -60 -50 0 -50 0 0 143 c0 113
-3 147 -16 165 l-15 22 114 0 c63 0 128 -5 146 -11z m331 -7 c51 -25 61 -53
58 -158 -2 -73 -7 -96 -21 -112 -24 -26 -97 -42 -192 -42 l-75 0 0 135 c0 102
-4 143 -15 165 l-16 30 113 0 c88 0 121 -4 148 -18z m376 -7 c-3 -13 -11 -36
-16 -50 -9 -25 -11 -25 -34 -10 -13 9 -50 19 -80 22 l-56 6 0 -37 0 -36 55 0
55 0 -13 -32 c-13 -31 -17 -33 -55 -30 l-42 3 0 -35 0 -36 50 0 c28 0 64 7 81
15 27 15 30 14 36 -2 3 -10 12 -33 19 -50 l13 -33 -144 0 -144 0 -3 144 c-3
125 -6 147 -22 165 l-19 21 163 0 162 0 -6 -25z m351 10 l36 -15 -33 -35 -33
-34 -27 20 c-32 24 -83 22 -88 -3 -2 -12 12 -22 55 -37 81 -30 106 -45 122
-76 31 -63 -21 -125 -112 -133 -52 -4 -167 20 -167 35 0 4 14 21 31 39 l31 32
37 -21 c40 -22 91 -18 91 7 0 19 -18 31 -77 50 -90 30 -126 89 -87 144 9 13
26 27 38 32 35 14 144 11 183 -5z m-302 -105 c23 -11 54 -33 69 -49 l29 -30
-31 -26 c-40 -34 -49 -61 -26 -86 17 -19 17 -21 -8 -45 -23 -24 -26 -24 -41
-9 -11 10 -14 25 -11 44 7 34 -20 97 -47 111 -9 6 -25 7 -34 3 -15 -5 -16 -1
-10 28 5 19 8 40 8 47 0 6 8 12 18 12 10 0 21 5 24 10 8 14 13 13 60 -10z
m-814 -222 c8 -15 8 -19 -1 -13 -6 4 -22 -3 -35 -15 -22 -21 -25 -21 -31 -6
-4 11 2 26 16 41 25 26 34 25 51 -7z m-181 -7 c0 -3 -5 -13 -10 -21 -9 -13
-12 -12 -25 4 -19 25 -1 53 21 35 8 -6 14 -14 14 -18z m623 8 c-12 -4 -24 -12
-28 -18 -7 -13 -25 -15 -25 -3 0 12 53 41 64 35 5 -4 0 -10 -11 -14z m-583
-44 c0 -8 5 -15 10 -15 6 0 10 7 10 15 0 8 5 15 10 15 6 0 10 -18 10 -40 0
-22 -4 -40 -10 -40 -5 0 -10 7 -10 15 0 8 -4 15 -10 15 -5 0 -10 -7 -10 -15 0
-8 -7 -15 -15 -15 -11 0 -15 11 -15 40 0 29 4 40 15 40 8 0 15 -7 15 -15z
m250 -25 c0 -29 -4 -40 -15 -40 -11 0 -15 11 -15 40 0 29 4 40 15 40 11 0 15
-11 15 -40z m105 15 c1 -11 4 -26 9 -33 13 -22 -4 -29 -20 -8 -12 17 -14 18
-14 3 0 -9 -6 -17 -13 -17 -12 0 -15 37 -8 78 1 2 11 2 24 0 14 -2 22 -10 22
-23z m155 15 c0 -5 -8 -10 -17 -11 -14 0 -15 -2 -3 -6 37 -14 32 -53 -6 -53
-27 0 -33 20 -6 20 16 1 16 2 -2 15 -11 8 -16 21 -13 30 7 16 47 21 47 5z
m110 0 c0 -5 -8 -10 -17 -10 -15 0 -16 -2 -3 -10 13 -9 13 -11 0 -20 -13 -8
-12 -10 3 -10 9 0 17 -4 17 -10 0 -5 -11 -10 -25 -10 -22 0 -25 4 -25 40 0 36
3 40 25 40 14 0 25 -4 25 -10z m105 -15 c1 -11 4 -26 9 -33 13 -22 -4 -29 -20
-8 -12 17 -14 18 -14 3 0 -9 -6 -17 -14 -17 -11 0 -14 10 -11 38 1 20 3 38 4
40 1 2 11 2 24 0 14 -2 22 -10 22 -23z m84 8 c9 -17 10 -17 16 0 4 9 13 17 21
17 11 0 10 -9 -7 -42 l-21 -42 -19 35 c-10 18 -18 37 -19 42 0 14 19 7 29 -10z
m121 -23 c0 -22 -4 -40 -10 -40 -5 0 -10 18 -10 40 0 22 5 40 10 40 6 0 10
-18 10 -40z m120 30 c0 -5 -6 -10 -14 -10 -27 0 -29 -22 -5 -41 23 -18 23 -19
4 -19 -12 0 -26 5 -33 12 -25 25 -6 68 30 68 10 0 18 -4 18 -10z m100 0 c0 -5
-8 -10 -17 -10 -15 0 -16 -2 -3 -10 13 -9 13 -11 0 -20 -13 -8 -12 -10 3 -10
9 0 17 -4 17 -10 0 -5 -11 -10 -25 -10 -22 0 -25 4 -25 40 0 36 3 40 25 40 14
0 25 -4 25 -10z m100 0 c0 -5 -5 -10 -12 -10 -6 0 -3 -6 7 -14 11 -8 16 -19
12 -30 -7 -18 -42 -22 -52 -6 -3 6 4 10 17 10 l22 0 -21 15 c-13 9 -20 22 -17
30 7 17 44 21 44 5z"/>
<path d="M877 1584 c-12 -12 -8 -159 5 -172 16 -16 53 -15 67 2 8 9 11 43 9
93 l-3 78 -35 3 c-20 2 -39 0 -43 -4z"/>
<path d="M1190 1555 c0 -43 1 -45 29 -45 47 0 61 10 61 41 0 31 -23 49 -64 49
-24 0 -26 -3 -26 -45z"/>
<path d="M1596 1591 c-3 -5 -23 -7 -44 -4 -27 4 -42 1 -51 -11 -12 -14 -11
-16 5 -10 15 5 14 3 -3 -10 -27 -20 -30 -63 -7 -92 15 -18 15 -18 10 8 -7 31
6 44 24 23 9 -11 9 -23 2 -44 -7 -20 -7 -32 1 -40 16 -16 27 -13 20 6 -5 12 0
10 16 -6 12 -12 30 -21 39 -19 29 6 19 37 -18 56 -31 15 -35 21 -35 57 0 38 2
40 35 45 32 5 36 10 32 40 -2 12 -19 13 -26 1z"/>
<path d="M1584 1499 c-11 -18 7 -30 23 -17 9 7 19 12 22 10 3 -2 7 1 9 6 4 12
-46 13 -54 1z"/>
</g>
</svg>
