<svg width="252" height="92" viewBox="0 0 252 92" fill="none" xmlns="http://www.w3.org/2000/svg">
<path d="M3.93336 1.60016C0.466689 2.93349 -0.199978 6.80015 1.66669 13.3335C3.13336 18.1335 3.66669 27.7335 3.66669 52.8002V85.8668L7.13336 88.5335C10.4667 91.2002 12.4667 91.3335 36.0667 91.3335C58.0667 91.3335 61.8 91.0668 63.9334 89.0668C65.6667 87.6002 68.3334 86.9335 72.4667 87.2002C80.8667 87.6002 86.0667 85.0668 89.2667 78.9335L91.8 73.7335L94.3334 78.8002C97.2667 84.4002 96.8667 86.0002 93.5334 83.2002C91.8 81.7335 91.1334 81.7335 90.7334 82.9335C90.3334 83.8668 89.2667 84.6668 88.2 84.6668C87.1334 84.6668 86.3334 85.2002 86.3334 86.0002C86.3334 87.6002 95.6667 87.7335 98.2 86.1335C99.4 85.3335 101.133 85.3335 102.733 86.2668C104.6 87.2002 106.2 87.0668 108.467 85.8668C111 84.5335 112.067 84.5335 113.267 85.7335C115.533 88.0002 123 87.7335 125 85.3335C125.933 84.2668 126.6 80.9335 126.6 77.8668C126.467 73.0668 126.867 72.5335 129.4 72.9335C131.533 73.2002 132.333 74.2668 132.467 76.6668C132.6 83.6002 133.133 84.6668 136.333 86.8002C139.4 88.8002 139.933 88.8002 142.867 86.8002C145.933 84.9335 146.467 84.9335 150.067 86.9335C153.8 89.0668 154.2 89.0668 157.667 86.8002C160.333 85.0668 161.667 84.8002 162.733 85.8668C164.733 87.8668 171.8 87.6002 174.867 85.3335C177 83.7335 177.8 83.7335 180.6 85.6002C183.533 87.6002 183.933 87.4668 187.133 84.5335L190.333 81.4668L192.467 84.4002C194.733 87.6002 198.2 88.2668 200.733 85.7335C202.067 84.4002 203.267 84.6668 206.467 86.5335C210.2 88.6668 210.733 88.8002 213.8 86.6668C216.733 84.8002 217.4 84.8002 219.933 86.6668C223.8 89.2002 225.667 89.2002 228.333 86.4002C230.467 84.4002 230.867 84.4002 234.467 86.5335C241.667 90.8002 247.667 84.0002 244.2 75.4668C242.333 71.0668 242.467 70.8002 247 65.8668C250.6 61.8668 251.667 59.4668 251.667 55.6002C251.667 50.5335 249 45.3335 244.733 42.2668C242.467 40.6668 242.6 40.2668 246.467 35.4668C251 29.7335 250.6 27.7335 244.333 22.9335C240.067 19.7335 226.6 18.5335 219.133 20.6668C213.8 22.1335 213 22.0002 210.467 19.4668C207.4 16.4002 200.733 15.7335 198.6 18.4002C197.667 19.6002 191.8 20.0002 177.667 19.8668C163.533 19.8668 157.133 20.2668 154.6 21.6002C151.667 23.2002 149.933 23.2002 145.267 21.8668C136.867 19.6002 118.733 19.3335 112.067 21.4668C107.933 22.9335 105.667 23.0668 102.733 21.8668C97 19.6002 71.6667 19.3335 67.5334 21.4668C64.6 22.9335 63 22.9335 57.6667 21.2002C47.6667 18.2668 42.2 18.8002 30.0667 24.0002C27.9334 24.8002 27.6667 24.0002 27.6667 16.1335C27.6667 8.40016 27.2667 6.80016 24.3334 4.00016C21.6667 1.20016 19.9334 0.666822 13.4 0.800156C9.13336 0.800156 4.86669 1.20016 3.93336 1.60016ZM14.4667 6.00016H22.3334V41.3335V76.6668H36.0667C46.7334 76.6668 50.7334 76.1335 54.3334 74.1335L58.8667 71.7335L61.2667 78.5335C62.6 82.1335 63.6667 85.6002 63.6667 86.0002C63.6667 86.4002 51.1334 86.5335 35.6667 86.2668L7.66669 85.8668V49.6002C7.66669 15.3335 7.53336 13.0668 4.86669 8.80016C2.60002 5.06682 2.46669 4.40016 4.33336 5.20016C5.53336 5.60016 10.0667 6.00016 14.4667 6.00016ZM207.667 22.6668C209.533 24.9335 208.733 33.2002 206.2 36.1335C205.4 37.2002 203.533 38.0002 202.067 38.0002C199.667 38.0002 199.667 37.7335 201.533 35.0668C203.4 32.4002 203.4 32.0002 201 30.4002C199.533 29.3335 198.333 27.4668 198.333 26.1335C198.333 21.2002 204.467 18.8002 207.667 22.6668ZM62.4667 29.7335C66.0667 33.7335 66.3334 34.6668 66.3334 45.7335C66.3334 52.2668 65.5334 58.8002 64.6 60.6668C59.4 71.2002 34.6 71.2002 29.4 60.6668C28.4667 58.8002 27.6667 52.2668 27.6667 45.8668C27.6667 36.1335 28.0667 33.8668 30.4667 30.8002C34.6 25.6002 37.6667 24.6668 48.8667 25.0668C57.9334 25.3335 58.8667 25.7335 62.4667 29.7335ZM100.867 26.1335C106.333 28.0002 107.667 30.8002 107.667 39.8668C107.667 45.7335 107.133 47.6002 105.133 48.9335C102.733 50.4002 102.733 50.6668 105.8 58.9335C107.533 63.6002 109 67.7335 109 68.0002C109 68.4002 106.067 68.6668 102.467 68.6668H95.8L93.5334 60.6668C91.5334 53.3335 91 52.6668 87.5334 52.6668C83.6667 52.6668 83.6667 52.8002 83.6667 60.6668V68.6668H77H70.3334V49.6002C70.3334 34.5335 69.9334 30.0002 68.2 27.6002L66.2 24.6668H81.4C89.8 24.6668 98.4667 25.3335 100.867 26.1335ZM145 27.0668C151.8 30.4002 153.133 34.1335 152.733 48.1335C152.467 57.8668 151.8 60.9335 149.933 63.0668C146.733 66.5335 137 68.6668 124.333 68.6668H114.333V50.6668C114.333 37.0668 113.8 31.6002 112.333 28.6668L110.2 24.6668H125.267C137 24.6668 141.4 25.2002 145 27.0668ZM195.133 28.0002C194.733 29.7335 193.667 32.8002 193 34.6668C191.8 38.0002 191.533 38.0002 188.467 36.0002C186.733 34.8002 181.8 33.4668 177.8 33.0668L170.333 32.2668V37.2002V42.0002H177.667H185L183.267 46.2668C181.533 50.4002 181 50.6668 175.933 50.2668L170.333 49.8668V54.5335V59.3335H177C180.733 59.3335 185.533 58.4002 187.8 57.3335C191.4 55.3335 191.8 55.4668 192.6 57.6002C193 58.9335 194.2 62.0002 195.133 64.2668L196.867 68.6668H177.667H158.467L158.067 49.4668C157.667 32.8002 157.267 29.8668 155.133 27.4668L152.6 24.6668H174.333H195.933L195.133 28.0002ZM241.933 26.6668L246.733 28.6668L242.333 33.3335L237.933 37.8668L234.333 35.2002C230.067 32.0002 223.267 32.2668 222.6 35.6002C222.333 37.2002 224.2 38.5335 229.933 40.5335C240.733 44.5335 244.067 46.5335 246.2 50.6668C250.333 59.0668 243.4 67.3335 231.267 68.4002C224.333 68.9335 209 65.7335 209 63.7335C209 63.2002 210.867 60.9335 213.133 58.5335L217.267 54.2668L222.2 57.0668C227.533 60.0002 234.333 59.4668 234.333 56.1335C234.333 53.6002 231.933 52.0002 224.067 49.4668C212.067 45.4668 207.267 37.6002 212.467 30.2668C213.667 28.5335 215.933 26.6668 217.533 26.0002C222.2 24.1335 236.733 24.5335 241.933 26.6668ZM201.667 40.6668C204.733 42.1335 208.867 45.0668 210.867 47.2002L214.733 51.2002L210.6 54.6668C205.267 59.2002 204.067 62.8002 207.133 66.1335C209.4 68.6668 209.4 68.9335 206.067 72.1335C203 75.3335 202.6 75.3335 200.6 73.3335C199.133 72.0002 198.733 70.0002 199.133 67.4668C200.067 62.9335 196.467 54.5335 192.867 52.6668C191.667 51.8668 189.533 51.7335 188.333 52.2668C186.333 52.9335 186.2 52.4002 187 48.5335C187.667 46.0002 188.067 43.2002 188.067 42.2668C188.067 41.4668 189.133 40.6668 190.467 40.6668C191.8 40.6668 193.267 40.0002 193.667 39.3335C194.733 37.4668 195.4 37.6002 201.667 40.6668ZM93.1334 70.2668C94.2 72.2668 94.2 72.8002 93 72.0002C92.2 71.4668 90.0667 72.4002 88.3334 74.0002C85.4 76.8002 85 76.8002 84.2 74.8002C83.6667 73.3335 84.4667 71.3335 86.3334 69.3335C89.6667 65.8668 90.8667 66.0002 93.1334 70.2668ZM69 71.2002C69 71.6002 68.3334 72.9335 67.6667 74.0002C66.4667 75.7335 66.0667 75.6002 64.3334 73.4668C61.8 70.1335 64.2 66.4002 67.1334 68.8002C68.2 69.6002 69 70.6668 69 71.2002ZM152.067 70.1335C150.467 70.6668 148.867 71.7335 148.333 72.5335C147.4 74.2668 145 74.5335 145 72.9335C145 71.3335 152.067 67.4668 153.533 68.2668C154.2 68.8002 153.533 69.6002 152.067 70.1335ZM74.3334 76.0002C74.3334 77.0668 75 78.0002 75.6667 78.0002C76.4667 78.0002 77 77.0668 77 76.0002C77 74.9335 77.6667 74.0002 78.3334 74.0002C79.1334 74.0002 79.6667 76.4002 79.6667 79.3335C79.6667 82.2668 79.1334 84.6668 78.3334 84.6668C77.6667 84.6668 77 83.7335 77 82.6668C77 81.6002 76.4667 80.6668 75.6667 80.6668C75 80.6668 74.3334 81.6002 74.3334 82.6668C74.3334 83.7335 73.4 84.6668 72.3334 84.6668C70.8667 84.6668 70.3334 83.2002 70.3334 79.3335C70.3334 75.4668 70.8667 74.0002 72.3334 74.0002C73.4 74.0002 74.3334 74.9335 74.3334 76.0002ZM107.667 79.3335C107.667 83.2002 107.133 84.6668 105.667 84.6668C104.2 84.6668 103.667 83.2002 103.667 79.3335C103.667 75.4668 104.2 74.0002 105.667 74.0002C107.133 74.0002 107.667 75.4668 107.667 79.3335ZM121.667 77.3335C121.8 78.8002 122.2 80.8002 122.867 81.7335C124.6 84.6668 122.333 85.6002 120.2 82.8002C118.6 80.5335 118.333 80.4002 118.333 82.4002C118.333 83.6002 117.533 84.6668 116.6 84.6668C115 84.6668 114.6 79.7335 115.533 74.2668C115.667 74.0002 117 74.0002 118.733 74.2668C120.6 74.5335 121.667 75.6002 121.667 77.3335ZM142.333 75.3335C142.333 76.0002 141.267 76.6668 140.067 76.8002C138.2 76.8002 138.067 77.0668 139.667 77.6002C144.6 79.4668 143.933 84.6668 138.867 84.6668C135.267 84.6668 134.467 82.0002 138.067 82.0002C140.2 81.8668 140.2 81.7335 137.8 80.0002C136.333 78.9335 135.667 77.2002 136.067 76.0002C137 73.8668 142.333 73.2002 142.333 75.3335ZM157 75.3335C157 76.0002 155.933 76.6668 154.733 76.6668C152.733 76.6668 152.6 76.9335 154.333 78.0002C156.067 79.2002 156.067 79.4668 154.333 80.6668C152.6 81.7335 152.733 82.0002 154.733 82.0002C155.933 82.0002 157 82.5335 157 83.3335C157 84.0002 155.533 84.6668 153.667 84.6668C150.733 84.6668 150.333 84.1335 150.333 79.3335C150.333 74.5335 150.733 74.0002 153.667 74.0002C155.533 74.0002 157 74.5335 157 75.3335ZM171 77.3335C171.133 78.8002 171.533 80.8002 172.2 81.7335C173.933 84.6668 171.667 85.6002 169.533 82.8002C167.933 80.5335 167.667 80.4002 167.667 82.4002C167.667 83.6002 166.867 84.6668 165.8 84.6668C164.333 84.6668 163.933 83.3335 164.333 79.6002C164.467 76.9335 164.733 74.5335 164.867 74.2668C165 74.0002 166.333 74.0002 168.067 74.2668C169.933 74.5335 171 75.6002 171 77.3335ZM182.2 76.2668C183.4 78.5335 183.533 78.5335 184.333 76.2668C184.867 75.0668 186.067 74.0002 187.133 74.0002C188.6 74.0002 188.467 75.2002 186.2 79.6002L183.4 85.2002L180.867 80.5335C179.533 78.1335 178.467 75.6002 178.333 74.9335C178.333 73.0668 180.867 74.0002 182.2 76.2668ZM198.333 79.3335C198.333 82.2668 197.8 84.6668 197 84.6668C196.333 84.6668 195.667 82.2668 195.667 79.3335C195.667 76.4002 196.333 74.0002 197 74.0002C197.8 74.0002 198.333 76.4002 198.333 79.3335ZM214.333 75.3335C214.333 76.0002 213.533 76.6668 212.467 76.6668C208.867 76.6668 208.6 79.6002 211.8 82.1335C214.867 84.5335 214.867 84.6668 212.333 84.6668C210.733 84.6668 208.867 84.0002 207.933 83.0668C204.6 79.7335 207.133 74.0002 211.933 74.0002C213.267 74.0002 214.333 74.5335 214.333 75.3335ZM227.667 75.3335C227.667 76.0002 226.6 76.6668 225.4 76.6668C223.4 76.6668 223.267 76.9335 225 78.0002C226.733 79.2002 226.733 79.4668 225 80.6668C223.267 81.7335 223.4 82.0002 225.4 82.0002C226.6 82.0002 227.667 82.5335 227.667 83.3335C227.667 84.0002 226.2 84.6668 224.333 84.6668C221.4 84.6668 221 84.1335 221 79.3335C221 74.5335 221.4 74.0002 224.333 74.0002C226.2 74.0002 227.667 74.5335 227.667 75.3335ZM241 75.3335C241 76.0002 240.333 76.6668 239.4 76.6668C238.6 76.6668 239 77.4668 240.333 78.5335C241.8 79.6002 242.467 81.0668 241.933 82.5335C241 84.9335 236.333 85.4668 235 83.3335C234.6 82.5335 235.533 82.0002 237.267 82.0002H240.2L237.4 80.0002C235.667 78.8002 234.733 77.0668 235.133 76.0002C236.067 73.7335 241 73.2002 241 75.3335Z" fill="white"/>
<path d="M41.9334 34.8C40.3334 36.4 40.8667 56 42.6 57.7333C44.7334 59.8667 49.6667 59.7333 51.5334 57.4667C52.6 56.2667 53 51.7333 52.7334 45.0667L52.3334 34.6667L47.6667 34.2667C45 34 42.4667 34.2667 41.9334 34.8Z" fill="white"/>
<path d="M83.6667 38.667C83.6667 44.4003 83.8 44.667 87.5334 44.667C93.8 44.667 95.6667 43.3337 95.6667 39.2003C95.6667 35.067 92.6 32.667 87.1334 32.667C83.9334 32.667 83.6667 33.067 83.6667 38.667Z" fill="white"/>
<path d="M137.8 33.867C137.4 34.5336 134.733 34.8003 131.933 34.4003C128.333 33.867 126.333 34.267 125.133 35.867C123.533 37.7336 123.667 38.0003 125.8 37.2003C127.8 36.5336 127.667 36.8003 125.4 38.5336C121.8 41.2003 121.4 46.9336 124.467 50.8003C126.467 53.2003 126.467 53.2003 125.8 49.7336C124.867 45.6003 126.6 43.867 129 46.667C130.2 48.1336 130.2 49.7336 129.267 52.5336C128.333 55.2003 128.333 56.8003 129.4 57.867C131.533 60.0003 133 59.6003 132.067 57.067C131.4 55.467 132.067 55.7336 134.2 57.867C135.8 59.467 138.2 60.667 139.4 60.4003C143.267 59.6003 141.933 55.467 137 52.9336C132.867 50.9336 132.333 50.1336 132.333 45.3336C132.333 40.267 132.6 40.0003 137 39.3336C141.267 38.667 141.8 38.0003 141.267 34.0003C141 32.4003 138.733 32.267 137.8 33.867Z" fill="white"/>
<path d="M136.2 46.1334C134.733 48.5334 137.133 50.1334 139.267 48.4001C140.467 47.4667 141.8 46.8001 142.2 47.0667C142.6 47.3334 143.133 46.9334 143.4 46.2667C143.933 44.6667 137.267 44.5334 136.2 46.1334Z" fill="white"/>
</svg>
